# MagicaVoxel @ Ephtracy

# group
g GreenCar

# material
mtllib GreenCar.mtl
usemtl palette

# normals
vn -1 0 0
vn 1 0 0
vn 0 0 1
vn 0 0 -1
vn 0 -1 0
vn 0 1 0

# texcoords
vt 0.294922 0.5
vt 0.337891 0.5
vt 0.353516 0.5
vt 0.466797 0.5
vt 0.525391 0.5
vt 0.958984 0.5
vt 0.962891 0.5
vt 0.966797 0.5
vt 0.994141 0.5

# verts
v -5 4 -1
v -5 4 -3
v -5 5 -1
v -5 5 -3
v -4 0 5
v -4 0 2
v -4 0 -3
v -4 0 -6
v -4 1 7
v -4 1 5
v -4 1 4
v -4 1 3
v -4 1 2
v -4 1 -3
v -4 1 -4
v -4 1 -5
v -4 1 -6
v -4 1 -9
v -4 2 7
v -4 2 5
v -4 2 4
v -4 2 3
v -4 2 2
v -4 2 -3
v -4 2 -4
v -4 2 -5
v -4 2 -6
v -4 2 -9
v -4 3 7
v -4 3 5
v -4 3 2
v -4 3 -3
v -4 3 -6
v -4 3 -9
v -4 4 -1
v -4 4 -3
v -4 5 7
v -4 5 -1
v -4 5 -3
v -4 5 -9
v -3 5 6
v -3 5 5
v -3 5 2
v -3 5 1
v -3 5 -3
v -3 5 -4
v -3 7 5
v -3 7 2
v -3 7 1
v -3 7 -3
v -3 8 6
v -3 8 -4
v -2 1 -6
v -2 1 -7
v -2 2 -6
v -2 2 -7
v 1 1 -8
v 1 1 -9
v 1 2 -8
v 1 2 -9
v 2 0 5
v 2 0 2
v 2 0 -3
v 2 0 -6
v 2 1 6
v 2 1 5
v 2 1 4
v 2 1 3
v 2 1 2
v 2 1 -3
v 2 1 -4
v 2 1 -5
v 2 1 -6
v 2 1 -7
v 2 2 6
v 2 2 5
v 2 2 4
v 2 2 3
v 2 2 2
v 2 2 -3
v 2 2 -4
v 2 2 -5
v 2 2 -6
v 2 2 -7
v 2 3 6
v 2 3 5
v 2 3 3
v 2 3 -3
v 2 3 -6
v -3 0 5
v -3 0 2
v -3 0 -3
v -3 0 -6
v -3 1 6
v -3 1 5
v -3 1 4
v -3 1 3
v -3 1 2
v -3 1 -3
v -3 1 -4
v -3 1 -5
v -3 1 -6
v -3 1 -7
v -3 2 6
v -3 2 5
v -3 2 4
v -3 2 3
v -3 2 2
v -3 2 -3
v -3 2 -4
v -3 2 -5
v -3 2 -6
v -3 2 -7
v -3 3 6
v -3 3 5
v -3 3 3
v -3 3 -3
v -3 3 -6
v -2 1 -8
v -2 1 -9
v -2 2 -8
v -2 2 -9
v 1 1 -6
v 1 1 -7
v 1 2 -6
v 1 2 -7
v 2 5 6
v 2 5 5
v 2 5 2
v 2 5 1
v 2 5 -3
v 2 5 -4
v 2 7 5
v 2 7 2
v 2 7 1
v 2 7 -3
v 2 8 6
v 2 8 -4
v 3 0 5
v 3 0 2
v 3 0 -3
v 3 0 -6
v 3 1 7
v 3 1 5
v 3 1 4
v 3 1 3
v 3 1 2
v 3 1 -3
v 3 1 -4
v 3 1 -5
v 3 1 -6
v 3 1 -9
v 3 2 7
v 3 2 5
v 3 2 4
v 3 2 3
v 3 2 2
v 3 2 -3
v 3 2 -4
v 3 2 -5
v 3 2 -6
v 3 2 -9
v 3 3 7
v 3 3 5
v 3 3 2
v 3 3 -3
v 3 3 -6
v 3 3 -9
v 3 4 -1
v 3 4 -3
v 3 5 7
v 3 5 -1
v 3 5 -3
v 3 5 -9
v 4 4 -1
v 4 4 -3
v 4 5 -1
v 4 5 -3
v -4 1 7
v -4 2 7
v -4 3 7
v -4 5 7
v -2 3 7
v -2 5 7
v 1 3 7
v 1 5 7
v 3 1 7
v 3 2 7
v 3 3 7
v 3 5 7
v -3 5 6
v -3 8 6
v -2 5 6
v -2 7 6
v 1 5 6
v 1 7 6
v 2 5 6
v 2 8 6
v -4 0 5
v -4 1 5
v -3 0 5
v -3 1 5
v 2 0 5
v 2 1 5
v 3 0 5
v 3 1 5
v -3 2 3
v -3 3 3
v 2 2 3
v 2 3 3
v -5 4 -1
v -5 5 -1
v -4 4 -1
v -4 5 -1
v 3 4 -1
v 3 5 -1
v 4 4 -1
v 4 5 -1
v -4 0 -3
v -4 1 -3
v -3 0 -3
v -3 1 -3
v 2 0 -3
v 2 1 -3
v 3 0 -3
v 3 1 -3
v -3 2 -6
v -3 3 -6
v -2 1 -6
v -2 2 -6
v -2 3 -6
v 1 1 -6
v 1 2 -6
v 1 3 -6
v 2 2 -6
v 2 3 -6
v -3 1 -7
v -3 2 -7
v -2 1 -7
v -2 2 -7
v 1 1 -7
v 1 2 -7
v 2 1 -7
v 2 2 -7
v -3 1 6
v -3 2 6
v -3 3 6
v -2 3 6
v 1 3 6
v 2 1 6
v 2 2 6
v 2 3 6
v -4 0 2
v -4 1 2
v -3 0 2
v -3 1 2
v 2 0 2
v 2 1 2
v 3 0 2
v 3 1 2
v -5 4 -3
v -5 5 -3
v -4 4 -3
v -4 5 -3
v -3 2 -3
v -3 3 -3
v -2 3 -3
v 1 3 -3
v 2 2 -3
v 2 3 -3
v 3 4 -3
v 3 5 -3
v 4 4 -3
v 4 5 -3
v -3 5 -4
v -3 8 -4
v -2 5 -4
v -2 7 -4
v 1 5 -4
v 1 7 -4
v 2 5 -4
v 2 8 -4
v -4 0 -6
v -4 1 -6
v -3 0 -6
v -3 1 -6
v 2 0 -6
v 2 1 -6
v 3 0 -6
v 3 1 -6
v -2 1 -8
v -2 2 -8
v 1 1 -8
v 1 2 -8
v -4 1 -9
v -4 2 -9
v -4 3 -9
v -4 5 -9
v -3 3 -9
v -3 4 -9
v -2 1 -9
v -2 2 -9
v -2 3 -9
v -2 4 -9
v -2 5 -9
v 1 1 -9
v 1 2 -9
v 1 3 -9
v 1 4 -9
v 1 5 -9
v 2 3 -9
v 2 4 -9
v 3 1 -9
v 3 2 -9
v 3 3 -9
v 3 5 -9
v -4 0 5
v -3 0 5
v 2 0 5
v 3 0 5
v -4 0 2
v -3 0 2
v 2 0 2
v 3 0 2
v -4 0 -3
v -3 0 -3
v 2 0 -3
v 3 0 -3
v -4 0 -6
v -3 0 -6
v 2 0 -6
v 3 0 -6
v -4 1 7
v 3 1 7
v -3 1 6
v 2 1 6
v -4 1 5
v -3 1 5
v 2 1 5
v 3 1 5
v -4 1 2
v -3 1 2
v 2 1 2
v 3 1 2
v -4 1 -3
v -3 1 -3
v 2 1 -3
v 3 1 -3
v -4 1 -6
v -3 1 -6
v -2 1 -6
v 1 1 -6
v 2 1 -6
v 3 1 -6
v -3 1 -7
v -2 1 -7
v 1 1 -7
v 2 1 -7
v -3 1 -8
v -2 1 -8
v 1 1 -8
v 2 1 -8
v -4 1 -9
v -2 1 -9
v 1 1 -9
v 3 1 -9
v -3 2 3
v 2 2 3
v -3 2 2
v 2 2 2
v -3 2 -3
v 2 2 -3
v -3 2 -6
v -2 2 -6
v 1 2 -6
v 2 2 -6
v -3 2 -7
v -2 2 -7
v 1 2 -7
v 2 2 -7
v -2 2 -8
v 1 2 -8
v -2 2 -9
v 1 2 -9
v -3 3 6
v -2 3 6
v 1 3 6
v 2 3 6
v -3 3 5
v -2 3 5
v 1 3 5
v 2 3 5
v -3 3 3
v 2 3 3
v -3 3 -3
v -2 3 -3
v 1 3 -3
v 2 3 -3
v -3 3 -6
v -2 3 -6
v 1 3 -6
v 2 3 -6
v -5 4 -1
v -4 4 -1
v 3 4 -1
v 4 4 -1
v -5 4 -3
v -4 4 -3
v 3 4 -3
v 4 4 -3
v -4 5 7
v -2 5 7
v 1 5 7
v 3 5 7
v -3 5 6
v -2 5 6
v 1 5 6
v 2 5 6
v -3 5 5
v 2 5 5
v -3 5 2
v 2 5 2
v -3 5 1
v 2 5 1
v -5 5 -1
v -4 5 -1
v 3 5 -1
v 4 5 -1
v -5 5 -3
v -4 5 -3
v -3 5 -3
v 2 5 -3
v 3 5 -3
v 4 5 -3
v -3 5 -4
v -2 5 -4
v 1 5 -4
v 2 5 -4
v -4 5 -9
v -2 5 -9
v 1 5 -9
v 3 5 -9
v -3 8 6
v 2 8 6
v -3 8 -4
v 2 8 -4

# faces
f 3/4/1 2/4/1 1/4/1
f 4/4/1 2/4/1 3/4/1
f 10/9/1 6/9/1 5/9/1
f 11/9/1 6/9/1 10/9/1
f 12/9/1 6/9/1 11/9/1
f 13/9/1 6/9/1 12/9/1
f 14/9/1 8/9/1 7/9/1
f 15/9/1 8/9/1 14/9/1
f 16/9/1 8/9/1 15/9/1
f 17/9/1 8/9/1 16/9/1
f 19/2/1 10/2/1 9/2/1
f 20/9/1 11/9/1 10/9/1
f 20/2/1 10/2/1 19/2/1
f 21/7/1 12/7/1 11/7/1
f 21/9/1 11/9/1 20/9/1
f 22/9/1 13/9/1 12/9/1
f 22/7/1 12/7/1 21/7/1
f 23/2/1 14/2/1 13/2/1
f 23/9/1 13/9/1 22/9/1
f 24/9/1 15/9/1 14/9/1
f 24/2/1 14/2/1 23/2/1
f 25/7/1 16/7/1 15/7/1
f 25/9/1 15/9/1 24/9/1
f 26/9/1 17/9/1 16/9/1
f 26/7/1 16/7/1 25/7/1
f 27/2/1 18/2/1 17/2/1
f 27/9/1 17/9/1 26/9/1
f 28/2/1 18/2/1 27/2/1
f 29/4/1 20/4/1 19/4/1
f 30/9/1 21/9/1 20/9/1
f 30/4/1 20/4/1 29/4/1
f 30/9/1 22/9/1 21/9/1
f 30/9/1 23/9/1 22/9/1
f 31/4/1 24/4/1 23/4/1
f 31/9/1 23/9/1 30/9/1
f 32/9/1 26/9/1 25/9/1
f 32/4/1 24/4/1 31/4/1
f 32/9/1 27/9/1 26/9/1
f 32/9/1 25/9/1 24/9/1
f 33/4/1 28/4/1 27/4/1
f 33/9/1 27/9/1 32/9/1
f 34/4/1 28/4/1 33/4/1
f 35/1/1 31/1/1 30/1/1
f 35/1/1 32/1/1 31/1/1
f 35/1/1 34/1/1 33/1/1
f 35/1/1 33/1/1 32/1/1
f 35/1/1 30/1/1 29/1/1
f 36/1/1 34/1/1 35/1/1
f 37/1/1 35/1/1 29/1/1
f 38/1/1 35/1/1 37/1/1
f 39/1/1 34/1/1 36/1/1
f 40/1/1 34/1/1 39/1/1
f 47/6/1 42/6/1 41/6/1
f 47/9/1 43/9/1 42/9/1
f 48/6/1 44/6/1 43/6/1
f 48/9/1 43/9/1 47/9/1
f 49/9/1 45/9/1 44/9/1
f 49/6/1 44/6/1 48/6/1
f 50/6/1 46/6/1 45/6/1
f 50/9/1 45/9/1 49/9/1
f 51/6/1 49/6/1 48/6/1
f 51/6/1 48/6/1 47/6/1
f 51/6/1 50/6/1 49/6/1
f 51/6/1 47/6/1 41/6/1
f 52/6/1 46/6/1 50/6/1
f 52/6/1 50/6/1 51/6/1
f 55/8/1 54/8/1 53/8/1
f 56/8/1 54/8/1 55/8/1
f 59/2/1 58/2/1 57/2/1
f 60/2/1 58/2/1 59/2/1
f 66/9/1 62/9/1 61/9/1
f 67/9/1 62/9/1 66/9/1
f 68/9/1 62/9/1 67/9/1
f 69/9/1 62/9/1 68/9/1
f 70/9/1 64/9/1 63/9/1
f 71/9/1 64/9/1 70/9/1
f 72/9/1 64/9/1 71/9/1
f 73/9/1 64/9/1 72/9/1
f 75/2/1 66/2/1 65/2/1
f 76/9/1 67/9/1 66/9/1
f 76/2/1 66/2/1 75/2/1
f 77/7/1 68/7/1 67/7/1
f 77/9/1 67/9/1 76/9/1
f 78/9/1 69/9/1 68/9/1
f 78/7/1 68/7/1 77/7/1
f 79/2/1 70/2/1 69/2/1
f 79/9/1 69/9/1 78/9/1
f 80/9/1 71/9/1 70/9/1
f 80/2/1 70/2/1 79/2/1
f 81/7/1 72/7/1 71/7/1
f 81/9/1 71/9/1 80/9/1
f 82/9/1 73/9/1 72/9/1
f 82/7/1 72/7/1 81/7/1
f 83/2/1 74/2/1 73/2/1
f 83/9/1 73/9/1 82/9/1
f 84/2/1 74/2/1 83/2/1
f 85/4/1 76/4/1 75/4/1
f 86/9/1 77/9/1 76/9/1
f 86/4/1 76/4/1 85/4/1
f 86/9/1 78/9/1 77/9/1
f 87/9/1 78/9/1 86/9/1
f 88/9/1 82/9/1 81/9/1
f 88/9/1 81/9/1 80/9/1
f 88/9/1 83/9/1 82/9/1
f 89/9/1 83/9/1 88/9/1
f 90/9/2 91/9/2 95/9/2
f 95/9/2 91/9/2 96/9/2
f 96/9/2 91/9/2 97/9/2
f 97/9/2 91/9/2 98/9/2
f 92/9/2 93/9/2 99/9/2
f 99/9/2 93/9/2 100/9/2
f 100/9/2 93/9/2 101/9/2
f 101/9/2 93/9/2 102/9/2
f 94/2/2 95/2/2 104/2/2
f 95/9/2 96/9/2 105/9/2
f 104/2/2 95/2/2 105/2/2
f 96/7/2 97/7/2 106/7/2
f 105/9/2 96/9/2 106/9/2
f 97/9/2 98/9/2 107/9/2
f 106/7/2 97/7/2 107/7/2
f 98/2/2 99/2/2 108/2/2
f 107/9/2 98/9/2 108/9/2
f 99/9/2 100/9/2 109/9/2
f 108/2/2 99/2/2 109/2/2
f 100/7/2 101/7/2 110/7/2
f 109/9/2 100/9/2 110/9/2
f 101/9/2 102/9/2 111/9/2
f 110/7/2 101/7/2 111/7/2
f 102/2/2 103/2/2 112/2/2
f 111/9/2 102/9/2 112/9/2
f 112/2/2 103/2/2 113/2/2
f 104/4/2 105/4/2 114/4/2
f 105/9/2 106/9/2 115/9/2
f 114/4/2 105/4/2 115/4/2
f 106/9/2 107/9/2 115/9/2
f 115/9/2 107/9/2 116/9/2
f 110/9/2 111/9/2 117/9/2
f 109/9/2 110/9/2 117/9/2
f 111/9/2 112/9/2 117/9/2
f 117/9/2 112/9/2 118/9/2
f 119/2/2 120/2/2 121/2/2
f 121/2/2 120/2/2 122/2/2
f 123/8/2 124/8/2 125/8/2
f 125/8/2 124/8/2 126/8/2
f 127/6/2 128/6/2 133/6/2
f 128/9/2 129/9/2 133/9/2
f 129/6/2 130/6/2 134/6/2
f 133/9/2 129/9/2 134/9/2
f 130/9/2 131/9/2 135/9/2
f 134/6/2 130/6/2 135/6/2
f 131/6/2 132/6/2 136/6/2
f 135/9/2 131/9/2 136/9/2
f 134/6/2 135/6/2 137/6/2
f 133/6/2 134/6/2 137/6/2
f 135/6/2 136/6/2 137/6/2
f 127/6/2 133/6/2 137/6/2
f 136/6/2 132/6/2 138/6/2
f 137/6/2 136/6/2 138/6/2
f 139/9/2 140/9/2 144/9/2
f 144/9/2 140/9/2 145/9/2
f 145/9/2 140/9/2 146/9/2
f 146/9/2 140/9/2 147/9/2
f 141/9/2 142/9/2 148/9/2
f 148/9/2 142/9/2 149/9/2
f 149/9/2 142/9/2 150/9/2
f 150/9/2 142/9/2 151/9/2
f 143/2/2 144/2/2 153/2/2
f 144/9/2 145/9/2 154/9/2
f 153/2/2 144/2/2 154/2/2
f 145/7/2 146/7/2 155/7/2
f 154/9/2 145/9/2 155/9/2
f 146/9/2 147/9/2 156/9/2
f 155/7/2 146/7/2 156/7/2
f 147/2/2 148/2/2 157/2/2
f 156/9/2 147/9/2 157/9/2
f 148/9/2 149/9/2 158/9/2
f 157/2/2 148/2/2 158/2/2
f 149/7/2 150/7/2 159/7/2
f 158/9/2 149/9/2 159/9/2
f 150/9/2 151/9/2 160/9/2
f 159/7/2 150/7/2 160/7/2
f 151/2/2 152/2/2 161/2/2
f 160/9/2 151/9/2 161/9/2
f 161/2/2 152/2/2 162/2/2
f 153/4/2 154/4/2 163/4/2
f 154/9/2 155/9/2 164/9/2
f 163/4/2 154/4/2 164/4/2
f 155/9/2 156/9/2 164/9/2
f 156/9/2 157/9/2 164/9/2
f 157/4/2 158/4/2 165/4/2
f 164/9/2 157/9/2 165/9/2
f 159/9/2 160/9/2 166/9/2
f 165/4/2 158/4/2 166/4/2
f 160/9/2 161/9/2 166/9/2
f 158/9/2 159/9/2 166/9/2
f 161/4/2 162/4/2 167/4/2
f 166/9/2 161/9/2 167/9/2
f 167/4/2 162/4/2 168/4/2
f 164/1/2 165/1/2 169/1/2
f 165/1/2 166/1/2 169/1/2
f 167/1/2 168/1/2 169/1/2
f 166/1/2 167/1/2 169/1/2
f 163/1/2 164/1/2 169/1/2
f 169/1/2 168/1/2 170/1/2
f 163/1/2 169/1/2 171/1/2
f 171/1/2 169/1/2 172/1/2
f 170/1/2 168/1/2 173/1/2
f 173/1/2 168/1/2 174/1/2
f 175/4/2 176/4/2 177/4/2
f 177/4/2 176/4/2 178/4/2
f 183/4/3 181/4/3 180/4/3
f 183/1/3 182/1/3 181/1/3
f 184/1/3 182/1/3 183/1/3
f 185/4/3 183/4/3 180/4/3
f 185/4/3 184/4/3 183/4/3
f 186/4/3 184/4/3 185/4/3
f 187/2/3 180/2/3 179/2/3
f 188/4/3 185/4/3 180/4/3
f 188/2/3 180/2/3 187/2/3
f 189/1/3 186/1/3 185/1/3
f 189/4/3 185/4/3 188/4/3
f 190/1/3 186/1/3 189/1/3
f 193/6/3 192/6/3 191/6/3
f 194/6/3 192/6/3 193/6/3
f 195/9/3 194/9/3 193/9/3
f 196/6/3 192/6/3 194/6/3
f 196/9/3 194/9/3 195/9/3
f 197/6/3 196/6/3 195/6/3
f 198/6/3 192/6/3 196/6/3
f 198/6/3 196/6/3 197/6/3
f 201/9/3 200/9/3 199/9/3
f 202/9/3 200/9/3 201/9/3
f 205/9/3 204/9/3 203/9/3
f 206/9/3 204/9/3 205/9/3
f 209/5/3 208/5/3 207/5/3
f 210/5/3 208/5/3 209/5/3
f 213/4/3 212/4/3 211/4/3
f 214/4/3 212/4/3 213/4/3
f 217/4/3 216/4/3 215/4/3
f 218/4/3 216/4/3 217/4/3
f 221/9/3 220/9/3 219/9/3
f 222/9/3 220/9/3 221/9/3
f 225/9/3 224/9/3 223/9/3
f 226/9/3 224/9/3 225/9/3
f 230/5/3 228/5/3 227/5/3
f 231/5/3 228/5/3 230/5/3
f 232/8/3 230/8/3 229/8/3
f 233/5/3 231/5/3 230/5/3
f 233/8/3 230/8/3 232/8/3
f 234/5/3 231/5/3 233/5/3
f 235/5/3 234/5/3 233/5/3
f 236/5/3 234/5/3 235/5/3
f 239/8/3 238/8/3 237/8/3
f 240/8/3 238/8/3 239/8/3
f 243/8/3 242/8/3 241/8/3
f 244/8/3 242/8/3 243/8/3
f 246/4/4 247/4/4 248/4/4
f 246/4/4 248/4/4 249/4/4
f 245/2/4 246/2/4 250/2/4
f 246/4/4 249/4/4 251/4/4
f 250/2/4 246/2/4 251/2/4
f 251/4/4 249/4/4 252/4/4
f 253/9/4 254/9/4 255/9/4
f 255/9/4 254/9/4 256/9/4
f 257/9/4 258/9/4 259/9/4
f 259/9/4 258/9/4 260/9/4
f 261/4/4 262/4/4 263/4/4
f 263/4/4 262/4/4 264/4/4
f 265/5/4 266/5/4 267/5/4
f 265/5/4 267/5/4 268/5/4
f 265/5/4 268/5/4 269/5/4
f 269/5/4 268/5/4 270/5/4
f 271/4/4 272/4/4 273/4/4
f 273/4/4 272/4/4 274/4/4
f 275/6/4 276/6/4 277/6/4
f 277/6/4 276/6/4 278/6/4
f 277/9/4 278/9/4 279/9/4
f 278/6/4 276/6/4 280/6/4
f 279/9/4 278/9/4 280/9/4
f 279/6/4 280/6/4 281/6/4
f 280/6/4 276/6/4 282/6/4
f 281/6/4 280/6/4 282/6/4
f 283/9/4 284/9/4 285/9/4
f 285/9/4 284/9/4 286/9/4
f 287/9/4 288/9/4 289/9/4
f 289/9/4 288/9/4 290/9/4
f 291/2/4 292/2/4 293/2/4
f 293/2/4 292/2/4 294/2/4
f 296/4/4 297/4/4 299/4/4
f 297/1/4 298/1/4 299/1/4
f 299/1/4 298/1/4 300/1/4
f 295/2/4 296/2/4 301/2/4
f 296/4/4 299/4/4 302/4/4
f 301/2/4 296/2/4 302/2/4
f 299/6/4 300/6/4 303/6/4
f 302/4/4 299/4/4 303/4/4
f 300/1/4 298/1/4 304/1/4
f 303/6/4 300/6/4 304/6/4
f 304/1/4 298/1/4 305/1/4
f 302/4/4 303/4/4 307/4/4
f 304/4/4 305/4/4 307/4/4
f 303/4/4 304/4/4 307/4/4
f 307/4/4 305/4/4 308/4/4
f 308/4/4 305/4/4 309/4/4
f 309/4/4 305/4/4 310/4/4
f 307/4/4 308/4/4 311/4/4
f 308/6/4 309/6/4 311/6/4
f 309/1/4 310/1/4 312/1/4
f 311/6/4 309/6/4 312/6/4
f 306/2/4 307/2/4 313/2/4
f 307/4/4 311/4/4 314/4/4
f 313/2/4 307/2/4 314/2/4
f 311/1/4 312/1/4 315/1/4
f 314/4/4 311/4/4 315/4/4
f 312/1/4 310/1/4 316/1/4
f 315/1/4 312/1/4 316/1/4
f 321/9/5 318/9/5 317/9/5
f 322/9/5 318/9/5 321/9/5
f 323/9/5 320/9/5 319/9/5
f 324/9/5 320/9/5 323/9/5
f 329/9/5 326/9/5 325/9/5
f 330/9/5 326/9/5 329/9/5
f 331/9/5 328/9/5 327/9/5
f 332/9/5 328/9/5 331/9/5
f 335/2/5 334/2/5 333/2/5
f 336/2/5 334/2/5 335/2/5
f 337/2/5 335/2/5 333/2/5
f 338/2/5 335/2/5 337/2/5
f 339/2/5 334/2/5 336/2/5
f 340/2/5 334/2/5 339/2/5
f 345/2/5 342/2/5 341/2/5
f 346/2/5 342/2/5 345/2/5
f 347/2/5 344/2/5 343/2/5
f 348/2/5 344/2/5 347/2/5
f 355/2/5 350/2/5 349/2/5
f 356/8/5 352/8/5 351/8/5
f 357/8/5 352/8/5 356/8/5
f 358/2/5 354/2/5 353/2/5
f 359/2/5 355/2/5 349/2/5
f 359/8/5 356/8/5 355/8/5
f 360/2/5 357/2/5 356/2/5
f 360/8/5 356/8/5 359/8/5
f 361/8/5 358/8/5 357/8/5
f 361/2/5 357/2/5 360/2/5
f 362/2/5 354/2/5 358/2/5
f 362/8/5 358/8/5 361/8/5
f 363/2/5 359/2/5 349/2/5
f 363/2/5 360/2/5 359/2/5
f 364/2/5 360/2/5 363/2/5
f 365/2/5 362/2/5 361/2/5
f 366/2/5 354/2/5 362/2/5
f 366/2/5 362/2/5 365/2/5
f 369/5/5 368/5/5 367/5/5
f 370/5/5 368/5/5 369/5/5
f 371/5/5 370/5/5 369/5/5
f 372/5/5 370/5/5 371/5/5
f 377/5/5 374/5/5 373/5/5
f 378/5/5 374/5/5 377/5/5
f 379/5/5 376/5/5 375/5/5
f 380/5/5 376/5/5 379/5/5
f 383/4/5 382/4/5 381/4/5
f 384/4/5 382/4/5 383/4/5
f 389/3/5 386/3/5 385/3/5
f 390/5/5 387/5/5 386/5/5
f 390/3/5 386/3/5 389/3/5
f 391/3/5 388/3/5 387/3/5
f 391/5/5 387/5/5 390/5/5
f 392/3/5 388/3/5 391/3/5
f 393/3/5 390/3/5 389/3/5
f 393/3/5 391/3/5 390/3/5
f 393/3/5 392/3/5 391/3/5
f 394/3/5 392/3/5 393/3/5
f 399/3/5 396/3/5 395/3/5
f 400/5/5 397/5/5 396/5/5
f 400/3/5 396/3/5 399/3/5
f 401/3/5 398/3/5 397/3/5
f 401/5/5 397/5/5 400/5/5
f 402/3/5 398/3/5 401/3/5
f 407/4/5 404/4/5 403/4/5
f 408/4/5 404/4/5 407/4/5
f 409/4/5 406/4/5 405/4/5
f 410/4/5 406/4/5 409/4/5
f 411/1/6 412/1/6 415/1/6
f 412/4/6 413/4/6 416/4/6
f 415/1/6 412/1/6 416/1/6
f 413/1/6 414/1/6 417/1/6
f 416/4/6 413/4/6 417/4/6
f 417/1/6 414/1/6 418/1/6
f 411/1/6 415/1/6 419/1/6
f 418/1/6 414/1/6 420/1/6
f 411/1/6 419/1/6 421/1/6
f 420/1/6 414/1/6 422/1/6
f 411/1/6 421/1/6 423/1/6
f 422/1/6 414/1/6 424/1/6
f 411/1/6 423/1/6 426/1/6
f 424/1/6 414/1/6 427/1/6
f 425/4/6 426/4/6 429/4/6
f 426/1/6 423/1/6 430/1/6
f 429/4/6 426/4/6 430/4/6
f 430/1/6 423/1/6 431/1/6
f 424/1/6 427/1/6 432/1/6
f 427/4/6 428/4/6 433/4/6
f 432/1/6 427/1/6 433/1/6
f 433/4/6 428/4/6 434/4/6
f 430/1/6 431/1/6 435/1/6
f 432/1/6 433/1/6 438/1/6
f 430/1/6 435/1/6 439/1/6
f 435/1/6 436/1/6 439/1/6
f 436/4/6 437/4/6 440/4/6
f 439/1/6 436/1/6 440/1/6
f 437/1/6 438/1/6 441/1/6
f 440/4/6 437/4/6 441/4/6
f 438/1/6 433/1/6 442/1/6
f 441/1/6 438/1/6 442/1/6
f 443/6/6 444/6/6 445/6/6
f 445/6/6 444/6/6 446/6/6
