# MagicaVoxel @ Ephtracy

# group
g whitesheep

# material
mtllib whitesheep.mtl
usemtl palette

# normals
vn -1 0 0
vn 1 0 0
vn 0 0 1
vn 0 0 -1
vn 0 -1 0
vn 0 1 0

# texcoords
vt 0.0566406 0.5
vt 0.177734 0.5
vt 0.537109 0.5
vt 0.958984 0.5

# verts
v -7 4 6
v -7 4 3
v -7 4 2
v -7 4 -1
v -7 5 8
v -7 5 6
v -7 5 3
v -7 5 2
v -7 5 -1
v -7 5 -3
v -7 14 8
v -7 14 -3
v -6 0 5
v -6 0 4
v -6 0 1
v -6 0 -0
v -6 2 5
v -6 2 4
v -6 2 1
v -6 2 -0
v -6 4 5
v -6 4 4
v -6 4 1
v -6 4 -0
v 0 4 6
v 0 4 3
v 0 4 2
v 0 4 -1
v 0 5 6
v 0 5 3
v 0 5 2
v 0 5 -1
v 1 0 5
v 1 0 4
v 1 0 1
v 1 0 -0
v 1 2 5
v 1 2 4
v 1 2 1
v 1 2 -0
v 1 4 5
v 1 4 4
v 1 4 1
v 1 4 -0
v 6 9 6
v 6 9 5
v 6 9 -0
v 6 9 -1
v 6 10 6
v 6 10 5
v 6 10 -0
v 6 10 -1
v -5 0 5
v -5 0 4
v -5 0 1
v -5 0 -0
v -5 2 5
v -5 2 4
v -5 2 1
v -5 2 -0
v -5 4 5
v -5 4 4
v -5 4 1
v -5 4 -0
v -4 4 6
v -4 4 3
v -4 4 2
v -4 4 -1
v -4 5 6
v -4 5 3
v -4 5 2
v -4 5 -1
v 2 0 5
v 2 0 4
v 2 0 1
v 2 0 -0
v 2 2 5
v 2 2 4
v 2 2 1
v 2 2 -0
v 2 4 5
v 2 4 4
v 2 4 1
v 2 4 -0
v 3 4 6
v 3 4 3
v 3 4 2
v 3 4 -1
v 3 5 8
v 3 5 6
v 3 5 3
v 3 5 2
v 3 5 -1
v 3 5 -3
v 3 6 7
v 3 6 -2
v 3 12 8
v 3 12 7
v 3 12 -2
v 3 12 -3
v 4 6 7
v 4 6 5
v 4 6 -0
v 4 6 -2
v 4 8 6
v 4 8 5
v 4 8 -0
v 4 8 -1
v 4 11 6
v 4 11 5
v 4 11 -0
v 4 11 -1
v 4 12 8
v 4 12 7
v 4 12 5
v 4 12 4
v 4 12 1
v 4 12 -0
v 4 12 -2
v 4 12 -3
v 4 14 8
v 4 14 4
v 4 14 1
v 4 14 -3
v 5 9 6
v 5 9 5
v 5 9 -0
v 5 9 -1
v 5 10 6
v 5 10 5
v 5 10 -0
v 5 10 -1
v 6 12 4
v 6 12 1
v 6 14 4
v 6 14 1
v 7 8 6
v 7 8 5
v 7 8 -0
v 7 8 -1
v 7 11 6
v 7 11 5
v 7 11 -0
v 7 11 -1
v 8 7 5
v 8 7 -0
v 8 8 5
v 8 8 -0
v 8 9 4
v 8 9 3
v 8 9 2
v 8 9 1
v 8 10 4
v 8 10 3
v 8 10 2
v 8 10 1
v 9 6 5
v 9 6 -0
v 9 7 5
v 9 7 -0
v 9 8 5
v 9 8 -0
v 9 9 4
v 9 9 3
v 9 9 2
v 9 9 1
v 9 10 4
v 9 10 3
v 9 10 2
v 9 10 1
v 9 12 5
v 9 12 -0
v -7 5 8
v -7 14 8
v 3 5 8
v 3 12 8
v 4 12 8
v 4 14 8
v 3 6 7
v 3 12 7
v 4 6 7
v 4 12 7
v -7 4 6
v -7 5 6
v -4 4 6
v -4 5 6
v 0 4 6
v 0 5 6
v 3 4 6
v 3 5 6
v 4 8 6
v 4 11 6
v 5 9 6
v 5 10 6
v 6 9 6
v 6 10 6
v 7 8 6
v 7 11 6
v -6 0 5
v -6 2 5
v -6 4 5
v -5 0 5
v -5 2 5
v -5 4 5
v 1 0 5
v 1 2 5
v 1 4 5
v 2 0 5
v 2 2 5
v 2 4 5
v 4 6 5
v 4 8 5
v 4 11 5
v 4 12 5
v 5 9 5
v 5 10 5
v 6 9 5
v 6 10 5
v 7 7 5
v 7 8 5
v 7 11 5
v 8 7 5
v 8 8 5
v 9 6 5
v 9 7 5
v 9 8 5
v 9 12 5
v 4 12 4
v 4 14 4
v 6 12 4
v 6 14 4
v 8 9 3
v 8 10 3
v 9 9 3
v 9 10 3
v -7 4 2
v -7 5 2
v -4 4 2
v -4 5 2
v 0 4 2
v 0 5 2
v 3 4 2
v 3 5 2
v -6 0 1
v -6 2 1
v -6 4 1
v -5 0 1
v -5 2 1
v -5 4 1
v 1 0 1
v 1 2 1
v 1 4 1
v 2 0 1
v 2 2 1
v 2 4 1
v 8 9 1
v 8 10 1
v 9 9 1
v 9 10 1
v -6 0 4
v -6 2 4
v -6 4 4
v -5 0 4
v -5 2 4
v -5 4 4
v 1 0 4
v 1 2 4
v 1 4 4
v 2 0 4
v 2 2 4
v 2 4 4
v 8 9 4
v 8 10 4
v 9 9 4
v 9 10 4
v -7 4 3
v -7 5 3
v -4 4 3
v -4 5 3
v 0 4 3
v 0 5 3
v 3 4 3
v 3 5 3
v 8 9 2
v 8 10 2
v 9 9 2
v 9 10 2
v 4 12 1
v 4 14 1
v 6 12 1
v 6 14 1
v -6 0 -0
v -6 2 -0
v -6 4 -0
v -5 0 -0
v -5 2 -0
v -5 4 -0
v 1 0 -0
v 1 2 -0
v 1 4 -0
v 2 0 -0
v 2 2 -0
v 2 4 -0
v 4 6 -0
v 4 8 -0
v 4 11 -0
v 4 12 -0
v 5 9 -0
v 5 10 -0
v 6 9 -0
v 6 10 -0
v 7 7 -0
v 7 8 -0
v 7 11 -0
v 8 7 -0
v 8 8 -0
v 9 6 -0
v 9 7 -0
v 9 8 -0
v 9 12 -0
v -7 4 -1
v -7 5 -1
v -4 4 -1
v -4 5 -1
v 0 4 -1
v 0 5 -1
v 3 4 -1
v 3 5 -1
v 4 8 -1
v 4 11 -1
v 5 9 -1
v 5 10 -1
v 6 9 -1
v 6 10 -1
v 7 8 -1
v 7 11 -1
v 3 6 -2
v 3 12 -2
v 4 6 -2
v 4 12 -2
v -7 5 -3
v -7 14 -3
v 3 5 -3
v 3 12 -3
v 4 12 -3
v 4 14 -3
v -6 0 5
v -5 0 5
v 1 0 5
v 2 0 5
v -6 0 4
v -5 0 4
v 1 0 4
v 2 0 4
v -6 0 1
v -5 0 1
v 1 0 1
v 2 0 1
v -6 0 -0
v -5 0 -0
v 1 0 -0
v 2 0 -0
v -7 4 6
v -4 4 6
v 0 4 6
v 3 4 6
v -6 4 5
v -5 4 5
v 1 4 5
v 2 4 5
v -6 4 4
v -5 4 4
v 1 4 4
v 2 4 4
v -7 4 3
v -4 4 3
v 0 4 3
v 3 4 3
v -7 4 2
v -4 4 2
v 0 4 2
v 3 4 2
v -6 4 1
v -5 4 1
v 1 4 1
v 2 4 1
v -6 4 -0
v -5 4 -0
v 1 4 -0
v 2 4 -0
v -7 4 -1
v -4 4 -1
v 0 4 -1
v 3 4 -1
v -7 5 8
v 3 5 8
v -7 5 6
v -4 5 6
v 0 5 6
v 3 5 6
v -7 5 3
v -4 5 3
v 0 5 3
v 3 5 3
v -7 5 2
v -4 5 2
v 0 5 2
v 3 5 2
v -7 5 -1
v -4 5 -1
v 0 5 -1
v 3 5 -1
v -7 5 -3
v 3 5 -3
v 3 6 7
v 4 6 7
v 4 6 5
v 9 6 5
v 4 6 -0
v 9 6 -0
v 3 6 -2
v 4 6 -2
v 4 8 6
v 7 8 6
v 4 8 5
v 7 8 5
v 8 8 5
v 9 8 5
v 4 8 -0
v 7 8 -0
v 8 8 -0
v 9 8 -0
v 4 8 -1
v 7 8 -1
v 5 10 6
v 6 10 6
v 5 10 5
v 6 10 5
v 8 10 4
v 9 10 4
v 8 10 3
v 9 10 3
v 8 10 2
v 9 10 2
v 8 10 1
v 9 10 1
v 5 10 -0
v 6 10 -0
v 5 10 -1
v 6 10 -1
v 3 12 8
v 4 12 8
v 3 12 7
v 4 12 7
v 3 12 -2
v 4 12 -2
v 3 12 -3
v 4 12 -3
v 8 7 5
v 9 7 5
v 8 7 -0
v 9 7 -0
v 5 9 6
v 6 9 6
v 5 9 5
v 6 9 5
v 8 9 4
v 9 9 4
v 8 9 3
v 9 9 3
v 8 9 2
v 9 9 2
v 8 9 1
v 9 9 1
v 5 9 -0
v 6 9 -0
v 5 9 -1
v 6 9 -1
v 4 11 6
v 7 11 6
v 4 11 5
v 7 11 5
v 4 11 -0
v 7 11 -0
v 4 11 -1
v 7 11 -1
v 4 12 5
v 9 12 5
v 4 12 4
v 6 12 4
v 4 12 1
v 6 12 1
v 4 12 -0
v 9 12 -0
v -7 14 8
v 4 14 8
v 4 14 4
v 6 14 4
v 4 14 1
v 6 14 1
v -7 14 -3
v 4 14 -3

# faces
f 6/4/1 2/4/1 1/4/1
f 7/4/1 2/4/1 6/4/1
f 8/4/1 4/4/1 3/4/1
f 9/4/1 4/4/1 8/4/1
f 11/4/1 7/4/1 6/4/1
f 11/4/1 10/4/1 9/4/1
f 11/4/1 9/4/1 8/4/1
f 11/4/1 8/4/1 7/4/1
f 11/4/1 6/4/1 5/4/1
f 12/4/1 10/4/1 11/4/1
f 17/3/1 14/3/1 13/3/1
f 18/3/1 14/3/1 17/3/1
f 19/3/1 16/3/1 15/3/1
f 20/3/1 16/3/1 19/3/1
f 21/2/1 18/2/1 17/2/1
f 22/2/1 18/2/1 21/2/1
f 23/2/1 20/2/1 19/2/1
f 24/2/1 20/2/1 23/2/1
f 29/4/1 26/4/1 25/4/1
f 30/4/1 26/4/1 29/4/1
f 31/4/1 28/4/1 27/4/1
f 32/4/1 28/4/1 31/4/1
f 37/3/1 34/3/1 33/3/1
f 38/3/1 34/3/1 37/3/1
f 39/3/1 36/3/1 35/3/1
f 40/3/1 36/3/1 39/3/1
f 41/2/1 38/2/1 37/2/1
f 42/2/1 38/2/1 41/2/1
f 43/2/1 40/2/1 39/2/1
f 44/2/1 40/2/1 43/2/1
f 49/4/1 46/4/1 45/4/1
f 50/4/1 46/4/1 49/4/1
f 51/4/1 48/4/1 47/4/1
f 52/4/1 48/4/1 51/4/1
f 53/3/2 54/3/2 57/3/2
f 57/3/2 54/3/2 58/3/2
f 55/3/2 56/3/2 59/3/2
f 59/3/2 56/3/2 60/3/2
f 57/2/2 58/2/2 61/2/2
f 61/2/2 58/2/2 62/2/2
f 59/2/2 60/2/2 63/2/2
f 63/2/2 60/2/2 64/2/2
f 65/4/2 66/4/2 69/4/2
f 69/4/2 66/4/2 70/4/2
f 67/4/2 68/4/2 71/4/2
f 71/4/2 68/4/2 72/4/2
f 73/3/2 74/3/2 77/3/2
f 77/3/2 74/3/2 78/3/2
f 75/3/2 76/3/2 79/3/2
f 79/3/2 76/3/2 80/3/2
f 77/2/2 78/2/2 81/2/2
f 81/2/2 78/2/2 82/2/2
f 79/2/2 80/2/2 83/2/2
f 83/2/2 80/2/2 84/2/2
f 85/4/2 86/4/2 90/4/2
f 90/4/2 86/4/2 91/4/2
f 87/4/2 88/4/2 92/4/2
f 92/4/2 88/4/2 93/4/2
f 90/4/2 91/4/2 95/4/2
f 93/4/2 94/4/2 95/4/2
f 92/4/2 93/4/2 95/4/2
f 91/4/2 92/4/2 95/4/2
f 89/4/2 90/4/2 95/4/2
f 95/4/2 94/4/2 96/4/2
f 89/4/2 95/4/2 97/4/2
f 97/4/2 95/4/2 98/4/2
f 96/4/2 94/4/2 99/4/2
f 99/4/2 94/4/2 100/4/2
f 101/3/2 102/3/2 105/3/2
f 105/3/2 102/3/2 106/3/2
f 103/3/2 104/3/2 107/3/2
f 107/3/2 104/3/2 108/3/2
f 101/3/2 105/3/2 109/3/2
f 108/3/2 104/3/2 112/3/2
f 109/3/2 110/3/2 114/3/2
f 101/3/2 109/3/2 114/3/2
f 114/3/2 110/3/2 115/3/2
f 111/3/2 112/3/2 118/3/2
f 112/3/2 104/3/2 119/3/2
f 118/3/2 112/3/2 119/3/2
f 115/4/2 116/4/2 121/4/2
f 113/4/2 114/4/2 121/4/2
f 114/4/2 115/4/2 121/4/2
f 121/4/2 116/4/2 122/4/2
f 119/4/2 120/4/2 123/4/2
f 117/4/2 118/4/2 123/4/2
f 118/4/2 119/4/2 123/4/2
f 123/4/2 120/4/2 124/4/2
f 125/4/2 126/4/2 129/4/2
f 129/4/2 126/4/2 130/4/2
f 127/4/2 128/4/2 131/4/2
f 131/4/2 128/4/2 132/4/2
f 133/4/2 134/4/2 135/4/2
f 135/4/2 134/4/2 136/4/2
f 137/4/2 138/4/2 141/4/2
f 141/4/2 138/4/2 142/4/2
f 139/4/2 140/4/2 143/4/2
f 143/4/2 140/4/2 144/4/2
f 145/1/2 146/1/2 147/1/2
f 147/1/2 146/1/2 148/1/2
f 149/3/2 150/3/2 153/3/2
f 153/3/2 150/3/2 154/3/2
f 151/3/2 152/3/2 155/3/2
f 155/3/2 152/3/2 156/3/2
f 157/3/2 158/3/2 159/3/2
f 159/3/2 158/3/2 160/3/2
f 161/3/2 162/3/2 163/3/2
f 163/3/2 162/3/2 164/3/2
f 164/3/2 162/3/2 165/3/2
f 165/3/2 162/3/2 166/3/2
f 161/3/2 163/3/2 167/3/2
f 164/3/2 165/3/2 168/3/2
f 168/3/2 165/3/2 169/3/2
f 166/3/2 162/3/2 170/3/2
f 168/3/2 169/3/2 171/3/2
f 169/3/2 170/3/2 171/3/2
f 161/3/2 167/3/2 171/3/2
f 167/3/2 168/3/2 171/3/2
f 170/3/2 162/3/2 172/3/2
f 171/3/2 170/3/2 172/3/2
f 175/4/3 174/4/3 173/4/3
f 176/4/3 174/4/3 175/4/3
f 177/4/3 174/4/3 176/4/3
f 178/4/3 174/4/3 177/4/3
f 181/3/3 180/3/3 179/3/3
f 182/3/3 180/3/3 181/3/3
f 185/4/3 184/4/3 183/4/3
f 186/4/3 184/4/3 185/4/3
f 189/4/3 188/4/3 187/4/3
f 190/4/3 188/4/3 189/4/3
f 193/4/3 192/4/3 191/4/3
f 194/4/3 192/4/3 193/4/3
f 195/4/3 193/4/3 191/4/3
f 196/4/3 192/4/3 194/4/3
f 197/4/3 195/4/3 191/4/3
f 197/4/3 196/4/3 195/4/3
f 198/4/3 192/4/3 196/4/3
f 198/4/3 196/4/3 197/4/3
f 202/3/3 200/3/3 199/3/3
f 203/2/3 201/2/3 200/2/3
f 203/3/3 200/3/3 202/3/3
f 204/2/3 201/2/3 203/2/3
f 208/3/3 206/3/3 205/3/3
f 209/2/3 207/2/3 206/2/3
f 209/3/3 206/3/3 208/3/3
f 210/2/3 207/2/3 209/2/3
f 217/3/3 216/3/3 215/3/3
f 218/3/3 216/3/3 217/3/3
f 219/3/3 212/3/3 211/3/3
f 220/3/3 212/3/3 219/3/3
f 221/3/3 214/3/3 213/3/3
f 222/1/3 220/1/3 219/1/3
f 222/3/3 219/3/3 211/3/3
f 223/3/3 221/3/3 220/3/3
f 223/1/3 220/1/3 222/1/3
f 224/3/3 222/3/3 211/3/3
f 225/3/3 222/3/3 224/3/3
f 226/3/3 221/3/3 223/3/3
f 227/3/3 214/3/3 221/3/3
f 227/3/3 221/3/3 226/3/3
f 230/4/3 229/4/3 228/4/3
f 231/4/3 229/4/3 230/4/3
f 234/3/3 233/3/3 232/3/3
f 235/3/3 233/3/3 234/3/3
f 238/4/3 237/4/3 236/4/3
f 239/4/3 237/4/3 238/4/3
f 242/4/3 241/4/3 240/4/3
f 243/4/3 241/4/3 242/4/3
f 247/3/3 245/3/3 244/3/3
f 248/2/3 246/2/3 245/2/3
f 248/3/3 245/3/3 247/3/3
f 249/2/3 246/2/3 248/2/3
f 253/3/3 251/3/3 250/3/3
f 254/2/3 252/2/3 251/2/3
f 254/3/3 251/3/3 253/3/3
f 255/2/3 252/2/3 254/2/3
f 258/3/3 257/3/3 256/3/3
f 259/3/3 257/3/3 258/3/3
f 260/3/4 261/3/4 263/3/4
f 261/2/4 262/2/4 264/2/4
f 263/3/4 261/3/4 264/3/4
f 264/2/4 262/2/4 265/2/4
f 266/3/4 267/3/4 269/3/4
f 267/2/4 268/2/4 270/2/4
f 269/3/4 267/3/4 270/3/4
f 270/2/4 268/2/4 271/2/4
f 272/3/4 273/3/4 274/3/4
f 274/3/4 273/3/4 275/3/4
f 276/4/4 277/4/4 278/4/4
f 278/4/4 277/4/4 279/4/4
f 280/4/4 281/4/4 282/4/4
f 282/4/4 281/4/4 283/4/4
f 284/3/4 285/3/4 286/3/4
f 286/3/4 285/3/4 287/3/4
f 288/4/4 289/4/4 290/4/4
f 290/4/4 289/4/4 291/4/4
f 292/3/4 293/3/4 295/3/4
f 293/2/4 294/2/4 296/2/4
f 295/3/4 293/3/4 296/3/4
f 296/2/4 294/2/4 297/2/4
f 298/3/4 299/3/4 301/3/4
f 299/2/4 300/2/4 302/2/4
f 301/3/4 299/3/4 302/3/4
f 302/2/4 300/2/4 303/2/4
f 308/3/4 309/3/4 310/3/4
f 310/3/4 309/3/4 311/3/4
f 304/3/4 305/3/4 312/3/4
f 312/3/4 305/3/4 313/3/4
f 306/3/4 307/3/4 314/3/4
f 312/1/4 313/1/4 315/1/4
f 304/3/4 312/3/4 315/3/4
f 313/3/4 314/3/4 316/3/4
f 315/1/4 313/1/4 316/1/4
f 304/3/4 315/3/4 317/3/4
f 317/3/4 315/3/4 318/3/4
f 316/3/4 314/3/4 319/3/4
f 314/3/4 307/3/4 320/3/4
f 319/3/4 314/3/4 320/3/4
f 321/4/4 322/4/4 323/4/4
f 323/4/4 322/4/4 324/4/4
f 325/4/4 326/4/4 327/4/4
f 327/4/4 326/4/4 328/4/4
f 329/4/4 330/4/4 331/4/4
f 331/4/4 330/4/4 332/4/4
f 329/4/4 331/4/4 333/4/4
f 332/4/4 330/4/4 334/4/4
f 329/4/4 333/4/4 335/4/4
f 333/4/4 334/4/4 335/4/4
f 334/4/4 330/4/4 336/4/4
f 335/4/4 334/4/4 336/4/4
f 337/3/4 338/3/4 339/3/4
f 339/3/4 338/3/4 340/3/4
f 341/4/4 342/4/4 343/4/4
f 343/4/4 342/4/4 344/4/4
f 344/4/4 342/4/4 345/4/4
f 345/4/4 342/4/4 346/4/4
f 351/3/5 348/3/5 347/3/5
f 352/3/5 348/3/5 351/3/5
f 353/3/5 350/3/5 349/3/5
f 354/3/5 350/3/5 353/3/5
f 359/3/5 356/3/5 355/3/5
f 360/3/5 356/3/5 359/3/5
f 361/3/5 358/3/5 357/3/5
f 362/3/5 358/3/5 361/3/5
f 367/4/5 364/4/5 363/4/5
f 368/4/5 364/4/5 367/4/5
f 369/4/5 366/4/5 365/4/5
f 370/4/5 366/4/5 369/4/5
f 371/4/5 367/4/5 363/4/5
f 372/4/5 364/4/5 368/4/5
f 373/4/5 369/4/5 365/4/5
f 374/4/5 366/4/5 370/4/5
f 375/4/5 371/4/5 363/4/5
f 375/4/5 372/4/5 371/4/5
f 376/4/5 364/4/5 372/4/5
f 376/4/5 372/4/5 375/4/5
f 377/4/5 374/4/5 373/4/5
f 377/4/5 373/4/5 365/4/5
f 378/4/5 366/4/5 374/4/5
f 378/4/5 374/4/5 377/4/5
f 383/4/5 380/4/5 379/4/5
f 384/4/5 380/4/5 383/4/5
f 385/4/5 382/4/5 381/4/5
f 386/4/5 382/4/5 385/4/5
f 387/4/5 383/4/5 379/4/5
f 388/4/5 380/4/5 384/4/5
f 389/4/5 385/4/5 381/4/5
f 390/4/5 382/4/5 386/4/5
f 391/4/5 387/4/5 379/4/5
f 391/4/5 388/4/5 387/4/5
f 392/4/5 380/4/5 388/4/5
f 392/4/5 388/4/5 391/4/5
f 393/4/5 390/4/5 389/4/5
f 393/4/5 389/4/5 381/4/5
f 394/4/5 382/4/5 390/4/5
f 394/4/5 390/4/5 393/4/5
f 397/4/5 396/4/5 395/4/5
f 398/4/5 396/4/5 397/4/5
f 399/4/5 396/4/5 398/4/5
f 400/4/5 396/4/5 399/4/5
f 402/4/5 399/4/5 398/4/5
f 403/4/5 399/4/5 402/4/5
f 405/4/5 402/4/5 401/4/5
f 405/4/5 404/4/5 403/4/5
f 405/4/5 403/4/5 402/4/5
f 406/4/5 404/4/5 405/4/5
f 407/4/5 404/4/5 406/4/5
f 408/4/5 404/4/5 407/4/5
f 410/4/5 407/4/5 406/4/5
f 411/4/5 407/4/5 410/4/5
f 413/4/5 410/4/5 409/4/5
f 413/4/5 412/4/5 411/4/5
f 413/4/5 411/4/5 410/4/5
f 414/4/5 412/4/5 413/4/5
f 417/3/5 416/3/5 415/3/5
f 419/3/5 417/3/5 415/3/5
f 419/3/5 418/3/5 417/3/5
f 420/3/5 418/3/5 419/3/5
f 421/3/5 419/3/5 415/3/5
f 422/3/5 419/3/5 421/3/5
f 425/4/5 424/4/5 423/4/5
f 426/4/5 424/4/5 425/4/5
f 431/3/5 428/3/5 427/3/5
f 432/3/5 428/3/5 431/3/5
f 433/4/5 430/4/5 429/4/5
f 434/4/5 430/4/5 433/4/5
f 437/4/5 436/4/5 435/4/5
f 438/4/5 436/4/5 437/4/5
f 441/3/5 440/3/5 439/3/5
f 442/3/5 440/3/5 441/3/5
f 445/3/5 444/3/5 443/3/5
f 446/3/5 444/3/5 445/3/5
f 449/4/5 448/4/5 447/4/5
f 450/4/5 448/4/5 449/4/5
f 453/4/5 452/4/5 451/4/5
f 454/4/5 452/4/5 453/4/5
f 457/4/5 456/4/5 455/4/5
f 458/4/5 456/4/5 457/4/5
f 459/3/6 460/3/6 461/3/6
f 461/3/6 460/3/6 462/3/6
f 463/4/6 464/4/6 465/4/6
f 465/4/6 464/4/6 466/4/6
f 467/3/6 468/3/6 469/3/6
f 469/3/6 468/3/6 470/3/6
f 471/3/6 472/3/6 473/3/6
f 473/3/6 472/3/6 474/3/6
f 475/4/6 476/4/6 477/4/6
f 477/4/6 476/4/6 478/4/6
f 479/4/6 480/4/6 481/4/6
f 481/4/6 480/4/6 482/4/6
f 483/4/6 484/4/6 485/4/6
f 485/4/6 484/4/6 486/4/6
f 487/3/6 488/3/6 489/3/6
f 489/3/6 488/3/6 490/3/6
f 490/3/6 488/3/6 492/3/6
f 491/3/6 492/3/6 493/3/6
f 492/3/6 488/3/6 494/3/6
f 493/3/6 492/3/6 494/3/6
f 495/4/6 496/4/6 497/4/6
f 495/4/6 497/4/6 499/4/6
f 497/4/6 498/4/6 499/4/6
f 499/4/6 498/4/6 500/4/6
f 495/4/6 499/4/6 501/4/6
f 501/4/6 499/4/6 502/4/6
